<svg width="136" height="131" xmlns="http://www.w3.org/2000/svg">
 <!-- Created with Method Draw - http://github.com/duopixel/Method-Draw/ -->

 <g>
  <title>background</title>
  <rect fill="#fff" id="canvas_background" height="133" width="138" y="-1" x="-1"/>
  <g display="none" overflow="visible" y="0" x="0" height="100%" width="100%" id="canvasGrid">
   <rect fill="url(#gridpattern)" stroke-width="0" y="0" x="0" height="100%" width="100%"/>
  </g>
 </g>
 <g>
  <title>Layer 1</title>
  <g id="svg_102">
   <g transform="matrix(0.4174589770536983,0,0,0.4174589770536983,0,0) " id="svg_53">
    <path id="svg_54" fill="#9E773D" d="m83.189145,209.78004l0,-105.204l-51.303,0c0,0 -9.802,43.534 12.891,64.669c-0.001,0 -10.857,40.535 38.412,40.535z"/>
    <path id="svg_55" fill="#9E773D" d="m84.178145,209.78004l0,-105.204l51.302,0c0,0 9.803,43.534 -12.891,64.669c0,0 10.857,40.535 -38.411,40.535z"/>
    <g id="svg_56">
     <g id="svg_57">
      <rect id="svg_58" fill="#FDCC9B" height="32.923" width="29.395" y="163.95304" x="68.491145"/>
      <path id="svg_59" fill="#FCBC85" d="m68.491145,167.83104c0,0 12.364,7.874 29.395,6.051l0,-9.929l-29.395,0l0,3.878z"/>
      <ellipse id="svg_60" fill="#FCBC85" ry="16.364" rx="14.343" cy="112.90304" cx="26.104145"/>
      <ellipse id="svg_61" fill="#FCBC85" ry="16.364" rx="14.343" cy="112.90304" cx="140.272145"/>
      <path id="svg_62" fill="#FDCC9B" d="m140.214145,81.64804c0,-24.103 -17.637,-41.741 -57.025,-41.741c-39.39,0 -57.026,17.637 -57.026,41.741c0,24.104 -4.115,87.597 57.026,87.597c61.14,0 57.025,-63.493 57.025,-87.597z"/>
      <g id="svg_63">
       <g id="svg_64">
        <ellipse id="svg_65" fill="#3B2519" ry="6.761" rx="6.173" cy="108.98504" cx="55.413145"/>
        <circle id="svg_66" fill="#FFFFFF" r="1.846" cy="106.00004" cx="52.721145"/>
       </g>
       <path id="svg_67" fill="#BF904B" d="m45.537145,94.40804c2.919,1.117 7.606,-3.798 18.335,0.478c1.956,0.78 3.124,-6.668 -8.377,-6.668c-9.958,0 -11.722,5.515 -9.958,6.19z"/>
       <g id="svg_68">
        <ellipse id="svg_69" fill="#3B2519" ry="6.761" rx="6.173" cy="108.98504" cx="111.727145"/>
        <circle id="svg_70" fill="#FFFFFF" r="1.847" cy="106.00004" cx="109.035145"/>
       </g>
       <path id="svg_71" fill="#BF904B" d="m120.839145,94.40804c-2.919,1.117 -7.605,-3.798 -18.335,0.478c-1.956,0.78 -3.123,-6.668 8.378,-6.668c9.957,0 11.721,5.515 9.957,6.19z"/>
      </g>
      <path id="svg_72" fill="#FCBC85" d="m83.189145,132.76504c-6.1,0 -9.774,-4.557 -9.774,-2.351c0,2.204 1.764,6.394 9.774,6.394c8.01,0 9.773,-4.189 9.773,-6.394c0,-2.205 -3.674,2.351 -9.773,2.351z"/>
      <path id="svg_73" fill="#FCBC85" d="m83.189145,153.03604c-2.109,0 -3.381,-1.575 -3.381,-0.814c0,0.763 0.61,2.212 3.381,2.212c2.771,0 3.38,-1.449 3.38,-2.212c-0.001,-0.761 -1.271,0.814 -3.38,0.814z"/>
      <path id="svg_74" fill="#F7945E" d="m83.189145,147.41904c-9.668,0 -15.493,-3.937 -15.493,-2.939s2.796,4.924 15.493,4.924c12.697,0 15.492,-3.927 15.492,-4.924s-5.825,2.939 -15.492,2.939z"/>
     </g>
     <circle id="svg_75" fill="#F9AA8D" r="8.378" cy="130.59004" cx="47.475145"/>
     <circle id="svg_76" fill="#F9AA8D" r="8.377" cy="130.59004" cx="119.932145"/>
    </g>
    <path id="svg_77" fill="#9D777B" d="m83.189145,177.18104l0,37.037l-64.374,0c0,-14.991 30.569,-37.037 64.374,-37.037z"/>
    <path id="svg_78" fill="#9D777B" d="m83.189145,177.18104l0,37.037l64.372,0c0,-14.991 -30.569,-37.037 -64.372,-37.037z"/>
    <path id="svg_79" fill="#7B5C60" d="m50.477145,183.91004l17.439,30.309l15.272,0l0,-4.461l-21.512,-29.643c-3.901,1.041 -7.645,2.318 -11.199,3.795z"/>
    <path id="svg_80" fill="#7B5C60" d="m115.899145,183.91004l-17.44,30.309l-15.271,0l0,-4.461l21.512,-29.643c3.901,1.041 7.645,2.318 11.199,3.795z"/>
    <path id="svg_81" fill="#FFFFFF" d="m59.294145,180.74704c5.63,10.071 18.247,33.472 23.895,33.472l0,-37.037c-8.297,-0.001 -16.391,1.339 -23.895,3.565z"/>
    <path id="svg_82" fill="#FFFFFF" d="m107.082145,180.74704c-5.629,10.071 -18.246,33.472 -23.894,33.472l0,-37.037c8.296,-0.001 16.391,1.339 23.894,3.565z"/>
    <path id="svg_83" fill="#BF904B" d="m128.310145,28.56104c0,0 -20.344,-27.19 -60.614,-19.254c-40.271,7.937 -64.569,41.307 -63.727,74.839c1.323,52.661 33.371,63.007 40.967,71.719c-5.94,-12.816 -14.658,-37.356 -12.894,-53.641c1.326,-12.245 7.056,-16.344 7.056,-16.344c12.867,6.708 19.841,-7.721 19.841,-7.721c1.764,13.421 27.631,-6.389 27.631,-6.389s-2.939,8.394 6.394,11.068c9.333,2.675 26.97,-17.903 26.97,-17.903s0.294,23.414 12.199,23.281c0,0 3.656,7.225 2.774,20.767c-0.882,13.542 -6.596,32.011 -10.913,44.239c11.225,-6.364 35.769,-21.05 35.769,-61.644c-0.001,-40.592 -9.408,-59.343 -31.453,-63.017z"/>
    <path id="svg_84" fill="#FDCC9B" d="m68.491145,178.60204c0,0 4.299,11.777 14.697,11.777c10.398,0 14.697,-11.777 14.697,-11.777s-15.247,-5.552 -29.394,0z"/>
    <path id="svg_85" fill="#C7C5C4" d="m64.408145,179.41304c2.455,6.537 7.74,15.217 18.78,15.217c11.039,0 16.325,-8.68 18.779,-15.217c-6.019,-1.405 -12.334,-2.232 -18.779,-2.232c-6.446,0 -12.76,0.826 -18.78,2.232z"/>
    <path id="svg_86" fill="#FDCC9B" d="m97.886145,178.60204c0,0 -1.911,11.777 -14.697,11.777c-12.787,0 -14.697,-11.777 -14.697,-11.777s5.731,-3.288 14.697,-3.288c8.964,0 14.697,3.288 14.697,3.288z"/>
   </g>
   <g transform="matrix(0.4174589770536983,0,0,0.4174589770536983,0,0) " id="svg_87"/>
   <g transform="matrix(0.4174589770536983,0,0,0.4174589770536983,0,0) " id="svg_88"/>
   <g transform="matrix(0.4174589770536983,0,0,0.4174589770536983,0,0) " id="svg_89"/>
   <g transform="matrix(0.4174589770536983,0,0,0.4174589770536983,0,0) " id="svg_90"/>
   <g transform="matrix(0.4174589770536983,0,0,0.4174589770536983,0,0) " id="svg_91"/>
   <g transform="matrix(0.4174589770536983,0,0,0.4174589770536983,0,0) " id="svg_92"/>
   <g transform="matrix(0.4174589770536983,0,0,0.4174589770536983,0,0) " id="svg_93"/>
   <g transform="matrix(0.4174589770536983,0,0,0.4174589770536983,0,0) " id="svg_94"/>
   <g transform="matrix(0.4174589770536983,0,0,0.4174589770536983,0,0) " id="svg_95"/>
   <g transform="matrix(0.4174589770536983,0,0,0.4174589770536983,0,0) " id="svg_96"/>
   <g transform="matrix(0.4174589770536983,0,0,0.4174589770536983,0,0) " id="svg_97"/>
   <g transform="matrix(0.4174589770536983,0,0,0.4174589770536983,0,0) " id="svg_98"/>
   <g transform="matrix(0.4174589770536983,0,0,0.4174589770536983,0,0) " id="svg_99"/>
   <g transform="matrix(0.4174589770536983,0,0,0.4174589770536983,0,0) " id="svg_100"/>
   <g transform="matrix(0.4174589770536983,0,0,0.4174589770536983,0,0) " id="svg_101"/>
  </g>
  <g id="svg_154">
   <g transform="matrix(0.44092770815063886,0,0,0.44092770815063886,0,0) " id="svg_107">
    <g id="svg_108">
     <rect id="svg_109" fill="#FDCC9B" height="32.923" width="29.395" y="152.189579" x="216.632931"/>
     <path id="svg_110" fill="#FCBC85" d="m216.632931,156.067579c0,0 12.364,7.874 29.395,6.051l0,-9.929l-29.395,0l0,3.878z"/>
     <ellipse id="svg_111" fill="#FCBC85" ry="16.364" rx="14.343" cy="101.139579" cx="174.245931"/>
     <ellipse id="svg_112" fill="#FCBC85" ry="16.364" rx="14.343" cy="101.139579" cx="288.413931"/>
     <path id="svg_113" fill="#FDCC9B" d="m288.355931,69.884579c0,-24.104 -17.637,-41.74 -57.025,-41.74c-39.39,0 -57.026,17.637 -57.026,41.74c0,24.104 -4.115,87.597 57.026,87.597c61.14,-0.001 57.025,-63.493 57.025,-87.597z"/>
     <g id="svg_114">
      <g id="svg_115">
       <ellipse id="svg_116" fill="#3B2519" ry="6.761" rx="6.173" cy="97.221579" cx="203.554931"/>
       <circle id="svg_117" fill="#FFFFFF" r="1.846" cy="94.236579" cx="200.862931"/>
      </g>
      <path id="svg_118" fill="#36221E" d="m193.679931,80.466579c2.918,1.46 7.606,-4.96 18.335,0.625c1.955,1.018 3.123,-8.708 -8.378,-8.708c-9.957,0 -11.721,7.202 -9.957,8.083z"/>
      <g id="svg_119">
       <ellipse id="svg_120" fill="#3B2519" ry="6.761" rx="6.173" cy="97.221579" cx="259.868931"/>
       <circle id="svg_121" fill="#FFFFFF" r="1.847" cy="94.236579" cx="257.176931"/>
      </g>
      <path id="svg_122" fill="#36221E" d="m268.980931,80.466579c-2.919,1.46 -7.605,-4.96 -18.335,0.625c-1.955,1.018 -3.123,-8.708 8.378,-8.708c9.957,0 11.721,7.202 9.957,8.083z"/>
     </g>
     <path id="svg_123" fill="#FCBC85" d="m231.330931,121.002579c-6.1,0 -9.774,-4.557 -9.774,-2.352c0,2.204 1.764,6.393 9.774,6.393c8.01,0 9.773,-4.189 9.773,-6.393c0,-2.205 -3.675,2.352 -9.773,2.352z"/>
     <path id="svg_124" fill="#FCBC85" d="m231.330931,141.272579c-2.11,0 -3.381,-1.576 -3.381,-0.813c0,0.763 0.61,2.212 3.381,2.212c2.77,0 3.38,-1.449 3.38,-2.212c-0.001,-0.763 -1.271,0.813 -3.38,0.813z"/>
     <path id="svg_125" fill="#F7945E" d="m231.330931,135.655579c-9.669,0 -15.493,-3.938 -15.493,-2.939c0,0.997 2.796,4.924 15.493,4.924c12.697,0 15.492,-3.927 15.492,-4.924c0,-0.998 -5.825,2.939 -15.492,2.939z"/>
    </g>
    <path id="svg_126" fill="#98375E" d="m231.330931,165.417579l0,37.038l71.427,0c-0.001,-14.991 -37.624,-37.038 -71.427,-37.038z"/>
    <path id="svg_127" fill="#98375E" d="m231.330931,165.417579l0,37.038l-71.428,0c0,-14.991 37.623,-37.038 71.428,-37.038z"/>
    <path id="svg_128" fill="#C05371" d="m231.592931,165.417579c-7.19,0 -14.552,1.005 -21.689,2.721c0.048,0.063 7.916,10.213 21.689,10.213c12.755,0 21.232,-8.692 22.462,-10.03c-7.377,-1.831 -15.012,-2.904 -22.462,-2.904z"/>
    <path id="svg_129" fill="#FDCC9B" d="m216.632931,166.699579c0,0 4.299,5.891 14.698,5.891c10.398,0 14.697,-5.891 14.697,-5.891s-15.249,-5.552 -29.395,0z"/>
    <g id="svg_130">
     <path id="svg_131" fill="#C05371" d="m202.048931,170.254579c-1.245,0.395 -2.475,0.81 -3.693,1.243l0,30.958l3.693,0l0,-32.201z"/>
     <path id="svg_132" fill="#C05371" d="m187.927931,202.455579l8.792,0l0,-30.374c-3.042,1.133 -5.983,2.38 -8.792,3.711l0,26.663z"/>
    </g>
    <g id="svg_133">
     <path id="svg_134" fill="#C05371" d="m260.590931,170.254579c1.244,0.395 2.475,0.81 3.692,1.243l0,30.958l-3.692,0l0,-32.201z"/>
     <path id="svg_135" fill="#C05371" d="m274.710931,202.455579l-8.792,0l0,-30.374c3.041,1.133 5.982,2.38 8.792,3.711l0,26.663z"/>
    </g>
    <path id="svg_136" fill="#342620" d="m167.102931,55.545579c3.233,-37.58 33.804,-53.886 64.228,-53.886c30.424,0 60.994,16.306 64.227,53.886c3.233,37.581 -6.467,67.398 -11.695,63.786c-5.227,-3.611 2.766,-52.695 -13.526,-49.623c-25.72,4.85 -68.989,-16.535 -68.989,-16.535s0.123,12.832 -10.031,19.21c-19.731,12.394 -7.291,43.337 -12.518,46.948c-5.23,3.611 -14.93,-26.205 -11.696,-63.786z"/>
    <path id="svg_137" fill="#342620" d="m231.660931,148.339579l0,12.529c-16.314,0 -25.502,-6.004 -26.493,-8.679c-0.991,-2.675 7.534,1.499 11.796,0c4.262,-1.499 7.495,-3.85 14.697,-3.85z"/>
    <path id="svg_138" fill="#342620" d="m231.330931,148.339579l0,12.529c16.313,0 25.502,-6.004 26.493,-8.679c0.99,-2.675 -7.534,1.499 -11.796,0c-4.263,-1.499 -7.496,-3.85 -14.697,-3.85z"/>
   </g>
   <g transform="matrix(0.44092770815063886,0,0,0.44092770815063886,0,0) " id="svg_139"/>
   <g transform="matrix(0.44092770815063886,0,0,0.44092770815063886,0,0) " id="svg_140"/>
   <g transform="matrix(0.44092770815063886,0,0,0.44092770815063886,0,0) " id="svg_141"/>
   <g transform="matrix(0.44092770815063886,0,0,0.44092770815063886,0,0) " id="svg_142"/>
   <g transform="matrix(0.44092770815063886,0,0,0.44092770815063886,0,0) " id="svg_143"/>
   <g transform="matrix(0.44092770815063886,0,0,0.44092770815063886,0,0) " id="svg_144"/>
   <g transform="matrix(0.44092770815063886,0,0,0.44092770815063886,0,0) " id="svg_145"/>
   <g transform="matrix(0.44092770815063886,0,0,0.44092770815063886,0,0) " id="svg_146"/>
   <g transform="matrix(0.44092770815063886,0,0,0.44092770815063886,0,0) " id="svg_147"/>
   <g transform="matrix(0.44092770815063886,0,0,0.44092770815063886,0,0) " id="svg_148"/>
   <g transform="matrix(0.44092770815063886,0,0,0.44092770815063886,0,0) " id="svg_149"/>
   <g transform="matrix(0.44092770815063886,0,0,0.44092770815063886,0,0) " id="svg_150"/>
   <g transform="matrix(0.44092770815063886,0,0,0.44092770815063886,0,0) " id="svg_151"/>
   <g transform="matrix(0.44092770815063886,0,0,0.44092770815063886,0,0) " id="svg_152"/>
   <g transform="matrix(0.44092770815063886,0,0,0.44092770815063886,0,0) " id="svg_153"/>
  </g>
  <g id="svg_48">
   <g transform="matrix(0.42289655807170234,0,0,0.42289655807170234,0,0) " id="svg_5">
    <g id="svg_6">
     <rect id="svg_7" fill="#FDCC9B" height="32.922" width="29.395" y="260.837551" x="147.51863"/>
     <path id="svg_8" fill="#FCBC85" d="m147.51963,264.715551c0,0 12.364,7.874 29.394,6.05l0,-9.928l-29.394,0l0,3.878z"/>
     <ellipse id="svg_9" fill="#FCBC85" ry="16.364" rx="14.343" cy="209.787551" cx="105.13263"/>
     <ellipse id="svg_10" fill="#FCBC85" ry="16.364" rx="14.343" cy="209.787551" cx="219.30063"/>
     <path id="svg_11" fill="#FDCC9B" d="m219.24263,178.532551c0,-24.103 -17.637,-41.741 -57.025,-41.741c-39.39,0 -57.026,17.637 -57.026,41.741c0,24.104 -4.115,87.597 57.026,87.597c61.14,-0.001 57.025,-63.493 57.025,-87.597z"/>
     <g id="svg_12">
      <g id="svg_13">
       <ellipse id="svg_14" fill="#3B2519" ry="6.761" rx="6.173" cy="205.869551" cx="134.44063"/>
       <circle id="svg_15" fill="#FFFFFF" r="1.846" cy="202.884551" cx="131.74963"/>
      </g>
      <path id="svg_16" fill="#D96E27" d="m124.56563,189.114551c2.919,1.46 7.606,-4.96 18.335,0.625c1.956,1.018 3.123,-8.708 -8.377,-8.708c-9.958,0 -11.722,7.201 -9.958,8.083z"/>
      <g id="svg_17">
       <ellipse id="svg_18" fill="#3B2519" ry="6.761" rx="6.173" cy="205.869551" cx="190.75463"/>
       <circle id="svg_19" fill="#FFFFFF" r="1.846" cy="202.884551" cx="188.06263"/>
      </g>
      <path id="svg_20" fill="#D96E27" d="m199.86763,189.114551c-2.919,1.46 -7.607,-4.96 -18.335,0.625c-1.956,1.018 -3.123,-8.708 8.377,-8.708c9.958,0 11.721,7.201 9.958,8.083z"/>
     </g>
     <path id="svg_21" fill="#FCBC85" d="m162.21663,229.649551c-6.1,0 -9.774,-4.556 -9.774,-2.352c0,2.205 1.764,6.394 9.774,6.394c8.01,0 9.773,-4.189 9.773,-6.394c0.001,-2.204 -3.674,2.352 -9.773,2.352z"/>
     <path id="svg_22" fill="#FCBC85" d="m162.21663,249.920551c-2.11,0 -3.381,-1.576 -3.381,-0.813s0.609,2.211 3.381,2.211c2.77,0 3.38,-1.448 3.38,-2.211s-1.27,0.813 -3.38,0.813z"/>
     <path id="svg_23" fill="#F7945E" d="m162.21663,244.303551c-9.669,0 -15.493,-3.937 -15.493,-2.939c0,0.998 2.796,4.924 15.493,4.924c12.696,0 15.492,-3.926 15.492,-4.924c0.001,-0.998 -5.824,2.939 -15.492,2.939z"/>
    </g>
    <path id="svg_24" fill="#B4DEF6" d="m162.21663,274.065551l0,37.038l-71.427,0c0,-14.992 37.623,-37.038 71.427,-37.038z"/>
    <path id="svg_25" fill="#B4DEF6" d="m162.21663,274.065551l0,37.038l71.427,0c0,-14.992 -37.623,-37.038 -71.427,-37.038z"/>
    <path id="svg_26" fill="#FDCC9B" d="m147.51863,275.347551c0,0 4.299,5.332 14.697,5.332c10.398,0 14.697,-5.332 14.697,-5.332s-15.247,-5.552 -29.394,0z"/>
    <path id="svg_27" fill="#D96E27" d="m105.13163,205.869551c5.064,0 9.465,-15.138 9.023,-24.838c-0.44,-9.701 5.645,-16.755 17.594,-22.046c0,0 34.229,9.7 58.16,9.7c31.391,0 23.064,36.891 28.771,37.185c5.707,0.294 11.88,-42.035 5.266,-66.285c0,0 10.142,-5.292 13.228,-11.905c3.087,-6.614 -7.968,-0.441 -17.873,0c0,0 17.604,-11.464 18.4,-19.4c0.796,-7.936 -32.339,8.377 -69.23,4.409c-36.89,-3.97 -67.365,16.619 -68.865,48.059c-1.323,27.717 0.912,45.121 5.526,45.121z"/>
    <path id="svg_28" fill="#80CEF3" d="m147.51863,271.713551l14.697,8.965l-15.492,15.433l-11.51,-17.912c0,0.001 7.529,-7.408 12.305,-6.486z"/>
    <path id="svg_29" fill="#80CEF3" d="m176.91363,271.713551l-14.697,8.965l15.493,15.433l11.51,-17.912c-0.001,0.001 -7.529,-7.408 -12.306,-6.486z"/>
    <polygon id="svg_30" fill="#65C8F2" points="162.21560668945312,280.6795554161072 162.21560668945312,311.1025290489197 164.53564453125,282.9895529747009 "/>
    <circle id="svg_31" fill="#65C8F2" r="2.278" cy="289.277551" cx="158.83563"/>
    <circle id="svg_32" fill="#65C8F2" r="2.278" cy="307.354551" cx="158.83563"/>
   </g>
   <g transform="matrix(0.42289655807170234,0,0,0.42289655807170234,0,0) " id="svg_33"/>
   <g transform="matrix(0.42289655807170234,0,0,0.42289655807170234,0,0) " id="svg_34"/>
   <g transform="matrix(0.42289655807170234,0,0,0.42289655807170234,0,0) " id="svg_35"/>
   <g transform="matrix(0.42289655807170234,0,0,0.42289655807170234,0,0) " id="svg_36"/>
   <g transform="matrix(0.42289655807170234,0,0,0.42289655807170234,0,0) " id="svg_37"/>
   <g transform="matrix(0.42289655807170234,0,0,0.42289655807170234,0,0) " id="svg_38"/>
   <g transform="matrix(0.42289655807170234,0,0,0.42289655807170234,0,0) " id="svg_39"/>
   <g transform="matrix(0.42289655807170234,0,0,0.42289655807170234,0,0) " id="svg_40"/>
   <g transform="matrix(0.42289655807170234,0,0,0.42289655807170234,0,0) " id="svg_41"/>
   <g transform="matrix(0.42289655807170234,0,0,0.42289655807170234,0,0) " id="svg_42"/>
   <g transform="matrix(0.42289655807170234,0,0,0.42289655807170234,0,0) " id="svg_43"/>
   <g transform="matrix(0.42289655807170234,0,0,0.42289655807170234,0,0) " id="svg_44"/>
   <g transform="matrix(0.42289655807170234,0,0,0.42289655807170234,0,0) " id="svg_45"/>
   <g transform="matrix(0.42289655807170234,0,0,0.42289655807170234,0,0) " id="svg_46"/>
   <g transform="matrix(0.42289655807170234,0,0,0.42289655807170234,0,0) " id="svg_47"/>
  </g>
 </g>
</svg>